<svg version="1.1" xmlns="http://www.w3.org/2000/svg" viewBox="0 0 1262.689932772344 696.4746084525243" width="3788.069798317032" height="2089.423825357573">
  <!-- svg-source:excalidraw -->
  
  <defs>
    <style class="style-fonts">
      @font-face {
        font-family: "Virgil";
        src: url("https://excalidraw.com/Virgil.woff2");
      }
      @font-face {
        font-family: "Cascadia";
        src: url("https://excalidraw.com/Cascadia.woff2");
      }
      @font-face {
        font-family: "Assistant";
        src: url("https://excalidraw.com/Assistant-Regular.woff2");
      }
    </style>
    
  </defs>
  <rect x="0" y="0" width="1262.689932772344" height="696.4746084525243" fill="#ffffff"></rect><g stroke-opacity="0.3" fill-opacity="0.3" stroke-linecap="round" transform="translate(151.0971587458426 171.70010038304753) rotate(0 62.82819676477962 217.08548583651464)"><path d="M0 0 C35.96 0, 71.93 0, 125.66 0 M125.66 0 C125.66 117.98, 125.66 235.95, 125.66 434.17 M125.66 434.17 C94.42 434.17, 63.19 434.17, 0 434.17 M0 434.17 C0 261.73, 0 89.29, 0 0" stroke="#1e1e1e" stroke-width="1.5" fill="none" stroke-dasharray="1.5 7"></path></g><g stroke-opacity="0.3" fill-opacity="0.3" stroke-linecap="round" transform="translate(310.51198635796993 171.70010038304753) rotate(0 155.1950233518063 217.08548583651464)"><path d="M0 0 C105.06 0, 210.11 0, 310.39 0 M310.39 0 C310.39 108.04, 310.39 216.08, 310.39 434.17 M310.39 434.17 C216.9 434.17, 123.41 434.17, 0 434.17 M0 434.17 C0 298.55, 0 162.93, 0 0" stroke="#1e1e1e" stroke-width="1.5" fill="none" stroke-dasharray="1.5 7"></path></g><g stroke-opacity="0.3" fill-opacity="0.3" stroke-linecap="round" transform="translate(710.9245239484309 171.70010038304753) rotate(0 155.1950233518063 217.08548583651464)"><path d="M0 0 C109.4 0, 218.8 0, 310.39 0 M310.39 0 C310.39 139.49, 310.39 278.99, 310.39 434.17 M310.39 434.17 C215.33 434.17, 120.26 434.17, 0 434.17 M0 434.17 C0 278.87, 0 123.57, 0 0" stroke="#1e1e1e" stroke-width="1.5" fill="none" stroke-dasharray="1.5 7"></path></g><g stroke-opacity="0.3" fill-opacity="0.3" stroke-linecap="round" transform="translate(1058.823941854897 171.70010038304753) rotate(0 62.82819676477959 217.08548583651464)"><path d="M0 0 C49.04 0, 98.09 0, 125.66 0 M125.66 0 C125.66 127.84, 125.66 255.68, 125.66 434.17 M125.66 434.17 C83.41 434.17, 41.16 434.17, 0 434.17 M0 434.17 C0 298.47, 0 162.76, 0 0" stroke="#1e1e1e" stroke-width="1.5" fill="none" stroke-dasharray="1.5 7"></path></g><g stroke-linecap="round" transform="translate(112.78303015157655 133.90636489109187) rotate(0 552.5 255.5)"><path d="M0 0 C347.69 0, 695.38 0, 1105 0 M0 0 C236.2 0, 472.4 0, 1105 0 M1105 0 C1105 170.07, 1105 340.15, 1105 511 M1105 0 C1105 116.33, 1105 232.67, 1105 511 M1105 511 C681.89 511, 258.78 511, 0 511 M1105 511 C870.53 511, 636.05 511, 0 511 M0 511 C0 332.24, 0 153.49, 0 0 M0 511 C0 319.32, 0 127.65, 0 0" stroke="#1e1e1e" stroke-width="1" fill="none"></path></g><g stroke-linecap="round"><g stroke-opacity="0.4" fill-opacity="0.4" transform="translate(666.6113827380408 136.29471445693122) rotate(0 0 251.67791841915943)"><path d="M0 0 C0 122.51, 0 245.02, 0 503.36" stroke="#1e1e1e" stroke-width="1.5" fill="none" stroke-dasharray="1.5 7"></path></g></g><mask></mask><g stroke-linecap="round" transform="translate(133.78303015157655 153.90636489109187) rotate(0 79.5 235)"><path d="M0 0 C57.88 0, 115.76 0, 159 0 M0 0 C61.25 0, 122.5 0, 159 0 M159 0 C159 106.83, 159 213.66, 159 470 M159 0 C159 98.85, 159 197.71, 159 470 M159 470 C97.73 470, 36.46 470, 0 470 M159 470 C101.85 470, 44.7 470, 0 470 M0 470 C0 337.8, 0 205.61, 0 0 M0 470 C0 352.12, 0 234.24, 0 0" stroke="#2f9e44" stroke-width="1" fill="none"></path></g><g stroke-linecap="round" transform="translate(1040.7830301515764 153.90636489109187) rotate(0 79.5 235)"><path d="M0 0 C39.52 0, 79.05 0, 159 0 M0 0 C63.15 0, 126.3 0, 159 0 M159 0 C159 181.73, 159 363.46, 159 470 M159 0 C159 96.11, 159 192.23, 159 470 M159 470 C112.25 470, 65.51 470, 0 470 M159 470 C118.4 470, 77.8 470, 0 470 M0 470 C0 307.41, 0 144.82, 0 0 M0 470 C0 343.01, 0 216.02, 0 0" stroke="#2f9e44" stroke-width="1" fill="none"></path></g><g stroke-linecap="round" transform="translate(292.78303015157655 153.90636489109187) rotate(0 174.5 235)"><path d="M0 0 C105.12 0, 210.24 0, 349 0 M0 0 C109.02 0, 218.04 0, 349 0 M349 0 C349 187.13, 349 374.26, 349 470 M349 0 C349 117.31, 349 234.62, 349 470 M349 470 C229.45 470, 109.91 470, 0 470 M349 470 C231.45 470, 113.9 470, 0 470 M0 470 C0 370.96, 0 271.92, 0 0 M0 470 C0 315.89, 0 161.78, 0 0" stroke="#2f9e44" stroke-width="1" fill="none"></path></g><g stroke-linecap="round" transform="translate(642.7830301515766 153.90636489109187) rotate(0 23 235)"><path d="M0 0 C14.09 0, 28.18 0, 46 0 M0 0 C16.45 0, 32.91 0, 46 0 M46 0 C46 126.42, 46 252.83, 46 470 M46 0 C46 157, 46 313.99, 46 470 M46 470 C34.85 470, 23.71 470, 0 470 M46 470 C28.87 470, 11.73 470, 0 470 M0 470 C0 295.03, 0 120.05, 0 0 M0 470 C0 285.96, 0 101.92, 0 0" stroke="#2f9e44" stroke-width="1" fill="none"></path></g><g stroke-linecap="round" transform="translate(689.7830301515766 153.90636489109187) rotate(0 174.5 235)"><path d="M0 0 C117.34 0, 234.68 0, 349 0 M0 0 C109.08 0, 218.17 0, 349 0 M349 0 C349 170.7, 349 341.39, 349 470 M349 0 C349 108.1, 349 216.19, 349 470 M349 470 C233.78 470, 118.56 470, 0 470 M349 470 C228.21 470, 107.43 470, 0 470 M0 470 C0 365.84, 0 261.67, 0 0 M0 470 C0 340.63, 0 211.27, 0 0" stroke="#2f9e44" stroke-width="1" fill="none"></path></g><g stroke-linecap="round"><g stroke-opacity="0.5" fill-opacity="0.5" transform="translate(293.78303015157655 323.85675739901126) rotate(0 -1 -0.012658227848106662)"><path d="M0 0 C-0.67 -0.01, -1.33 -0.02, -2 -0.03 M0 0 C-0.46 -0.01, -0.91 -0.01, -2 -0.03" stroke="#1e1e1e" stroke-width="1" fill="none"></path></g><g stroke-opacity="0.5" fill-opacity="0.5" transform="translate(293.78303015157655 323.85675739901126) rotate(0 -1 -0.012658227848106662)"><path d="M0 0 L-0.91 0.41 L-0.9 -0.43 L0 0" stroke="none" stroke-width="0" fill="#1e1e1e" fill-rule="evenodd"></path><path d="M0 0 C-0.3 0.14, -0.61 0.27, -0.91 0.41 M0 0 C-0.21 0.09, -0.42 0.19, -0.91 0.41 M-0.91 0.41 C-0.91 0.09, -0.9 -0.24, -0.9 -0.43 M-0.91 0.41 C-0.91 0.23, -0.91 0.05, -0.9 -0.43 M-0.9 -0.43 C-0.59 -0.28, -0.27 -0.13, 0 0 M-0.9 -0.43 C-0.56 -0.27, -0.23 -0.11, 0 0 M0 0 C0 0, 0 0, 0 0 M0 0 C0 0, 0 0, 0 0" stroke="#1e1e1e" stroke-width="1" fill="none"></path></g><g stroke-opacity="0.5" fill-opacity="0.5" transform="translate(293.78303015157655 323.85675739901126) rotate(0 -1 -0.012658227848106662)"><path d="M-2 -0.03 L-1.09 -0.44 L-1.1 0.41 L-2 -0.03" stroke="none" stroke-width="0" fill="#1e1e1e" fill-rule="evenodd"></path><path d="M-2 -0.03 C-1.7 -0.16, -1.39 -0.3, -1.09 -0.44 M-2 -0.03 C-1.79 -0.12, -1.58 -0.21, -1.09 -0.44 M-1.09 -0.44 C-1.09 -0.11, -1.1 0.21, -1.1 0.41 M-1.09 -0.44 C-1.09 -0.26, -1.09 -0.08, -1.1 0.41 M-1.1 0.41 C-1.41 0.26, -1.73 0.11, -2 -0.03 M-1.1 0.41 C-1.44 0.25, -1.77 0.08, -2 -0.03 M-2 -0.03 C-2 -0.03, -2 -0.03, -2 -0.03 M-2 -0.03 C-2 -0.03, -2 -0.03, -2 -0.03" stroke="#1e1e1e" stroke-width="1" fill="none"></path></g></g><mask></mask><g stroke-linecap="round"><g stroke-opacity="0.5" fill-opacity="0.5" transform="translate(642.7830301515766 324.8440991711631) rotate(0 -0.5 -0.001432664756464419)"><path d="M0 0 C-0.29 0, -0.58 0, -1 0 M0 0 C-0.34 0, -0.69 0, -1 0" stroke="#1e1e1e" stroke-width="1" fill="none"></path></g><g stroke-opacity="0.5" fill-opacity="0.5" transform="translate(642.7830301515766 324.8440991711631) rotate(0 -0.5 -0.001432664756464419)"><path d="M0 0 L-0.45 0.21 L-0.45 -0.21 L0 0" stroke="none" stroke-width="0" fill="#1e1e1e" fill-rule="evenodd"></path><path d="M0 0 C-0.13 0.06, -0.26 0.12, -0.45 0.21 M0 0 C-0.16 0.07, -0.31 0.14, -0.45 0.21 M-0.45 0.21 C-0.45 0.06, -0.45 -0.09, -0.45 -0.21 M-0.45 0.21 C-0.45 0.05, -0.45 -0.11, -0.45 -0.21 M-0.45 -0.21 C-0.35 -0.16, -0.24 -0.11, 0 0 M-0.45 -0.21 C-0.35 -0.16, -0.24 -0.11, 0 0 M0 0 C0 0, 0 0, 0 0 M0 0 C0 0, 0 0, 0 0" stroke="#1e1e1e" stroke-width="1" fill="none"></path></g><g stroke-opacity="0.5" fill-opacity="0.5" transform="translate(642.7830301515766 324.8440991711631) rotate(0 -0.5 -0.001432664756464419)"><path d="M-1 0 L-0.55 -0.21 L-0.55 0.21 L-1 0" stroke="none" stroke-width="0" fill="#1e1e1e" fill-rule="evenodd"></path><path d="M-1 0 C-0.87 -0.06, -0.74 -0.12, -0.55 -0.21 M-1 0 C-0.84 -0.08, -0.69 -0.15, -0.55 -0.21 M-0.55 -0.21 C-0.55 -0.07, -0.55 0.08, -0.55 0.21 M-0.55 -0.21 C-0.55 -0.05, -0.55 0.11, -0.55 0.21 M-0.55 0.21 C-0.65 0.16, -0.76 0.11, -1 0 M-0.55 0.21 C-0.65 0.16, -0.76 0.11, -1 0 M-1 0 C-1 0, -1 0, -1 0 M-1 0 C-1 0, -1 0, -1 0" stroke="#1e1e1e" stroke-width="1" fill="none"></path></g></g><mask></mask><g stroke-linecap="round"><g stroke-opacity="0.5" fill-opacity="0.5" transform="translate(643.7830301515766 325.90636489109187) rotate(0 22 0)"><path d="M0 0 C10 0, 20 0, 44 0 M0 0 C9.25 0, 18.51 0, 44 0" stroke="#1e1e1e" stroke-width="1" fill="none"></path></g><g stroke-opacity="0.5" fill-opacity="0.5" transform="translate(643.7830301515766 325.90636489109187) rotate(0 22 0)"><path d="M0 0 L13.59 -6.34 L13.59 6.34 L0 0" stroke="none" stroke-width="0" fill="#1e1e1e" fill-rule="evenodd"></path><path d="M0 0 C3.09 -1.44, 6.18 -2.88, 13.59 -6.34 M0 0 C2.86 -1.33, 5.72 -2.67, 13.59 -6.34 M13.59 -6.34 C13.59 -1.45, 13.59 3.43, 13.59 6.34 M13.59 -6.34 C13.59 -1.78, 13.59 2.77, 13.59 6.34 M13.59 6.34 C9.77 4.56, 5.95 2.77, 0 0 M13.59 6.34 C10.19 4.75, 6.78 3.16, 0 0 M0 0 C0 0, 0 0, 0 0 M0 0 C0 0, 0 0, 0 0" stroke="#1e1e1e" stroke-width="1" fill="none"></path></g><g stroke-opacity="0.5" fill-opacity="0.5" transform="translate(643.7830301515766 325.90636489109187) rotate(0 22 0)"><path d="M44 0 L30.41 6.34 L30.41 -6.34 L44 0" stroke="none" stroke-width="0" fill="#1e1e1e" fill-rule="evenodd"></path><path d="M44 0 C40.91 1.44, 37.82 2.88, 30.41 6.34 M44 0 C41.14 1.33, 38.28 2.67, 30.41 6.34 M30.41 6.34 C30.41 1.45, 30.41 -3.43, 30.41 -6.34 M30.41 6.34 C30.41 1.78, 30.41 -2.77, 30.41 -6.34 M30.41 -6.34 C34.23 -4.56, 38.05 -2.77, 44 0 M30.41 -6.34 C33.81 -4.75, 37.22 -3.16, 44 0 M44 0 C44 0, 44 0, 44 0 M44 0 C44 0, 44 0, 44 0" stroke="#1e1e1e" stroke-width="1" fill="none"></path></g></g><mask></mask><g stroke-linecap="round"><g stroke-opacity="0.5" fill-opacity="0.5" transform="translate(689.7830301515766 325.90636489109187) rotate(0 175.5 0)"><path d="M0 0 C135.72 0, 271.43 0, 351 0 M0 0 C71.78 0, 143.56 0, 351 0" stroke="#1e1e1e" stroke-width="1" fill="none"></path></g><g stroke-opacity="0.5" fill-opacity="0.5" transform="translate(689.7830301515766 325.90636489109187) rotate(0 175.5 0)"><path d="M0 0 L13.59 -6.34 L13.59 6.34 L0 0" stroke="none" stroke-width="0" fill="#1e1e1e" fill-rule="evenodd"></path><path d="M0 0 C5.26 -2.45, 10.51 -4.9, 13.59 -6.34 M0 0 C2.78 -1.3, 5.56 -2.59, 13.59 -6.34 M13.59 -6.34 C13.59 -2.61, 13.59 1.12, 13.59 6.34 M13.59 -6.34 C13.59 -3.1, 13.59 0.14, 13.59 6.34 M13.59 6.34 C8.89 4.15, 4.19 1.95, 0 0 M13.59 6.34 C9.92 4.63, 6.25 2.91, 0 0 M0 0 C0 0, 0 0, 0 0 M0 0 C0 0, 0 0, 0 0" stroke="#1e1e1e" stroke-width="1" fill="none"></path></g><g stroke-opacity="0.5" fill-opacity="0.5" transform="translate(689.7830301515766 325.90636489109187) rotate(0 175.5 0)"><path d="M351 0 L337.41 6.34 L337.41 -6.34 L351 0" stroke="none" stroke-width="0" fill="#1e1e1e" fill-rule="evenodd"></path><path d="M351 0 C345.74 2.45, 340.49 4.9, 337.41 6.34 M351 0 C348.22 1.3, 345.44 2.59, 337.41 6.34 M337.41 6.34 C337.41 2.61, 337.41 -1.12, 337.41 -6.34 M337.41 6.34 C337.41 3.1, 337.41 -0.14, 337.41 -6.34 M337.41 -6.34 C342.11 -4.15, 346.81 -1.95, 351 0 M337.41 -6.34 C341.08 -4.63, 344.75 -2.91, 351 0 M351 0 C351 0, 351 0, 351 0 M351 0 C351 0, 351 0, 351 0" stroke="#1e1e1e" stroke-width="1" fill="none"></path></g></g><mask></mask><g stroke-linecap="round"><g stroke-opacity="0.5" fill-opacity="0.5" transform="translate(1038.7830301515764 325.90636489109187) rotate(0 80 0)"><path d="M0 0 C63.7 0, 127.41 0, 160 0 M0 0 C39.94 0, 79.87 0, 160 0" stroke="#1e1e1e" stroke-width="1" fill="none"></path></g><g stroke-opacity="0.5" fill-opacity="0.5" transform="translate(1038.7830301515764 325.90636489109187) rotate(0 80 0)"><path d="M0 0 L13.59 -6.34 L13.59 6.34 L0 0" stroke="none" stroke-width="0" fill="#1e1e1e" fill-rule="evenodd"></path><path d="M0 0 C5.41 -2.52, 10.83 -5.05, 13.59 -6.34 M0 0 C3.39 -1.58, 6.79 -3.16, 13.59 -6.34 M13.59 -6.34 C13.59 -2, 13.59 2.35, 13.59 6.34 M13.59 -6.34 C13.59 -2.07, 13.59 2.2, 13.59 6.34 M13.59 6.34 C10.73 5, 7.87 3.67, 0 0 M13.59 6.34 C9.14 4.26, 4.68 2.18, 0 0 M0 0 C0 0, 0 0, 0 0 M0 0 C0 0, 0 0, 0 0" stroke="#1e1e1e" stroke-width="1" fill="none"></path></g><g stroke-opacity="0.5" fill-opacity="0.5" transform="translate(1038.7830301515764 325.90636489109187) rotate(0 80 0)"><path d="M160 0 L146.41 6.34 L146.41 -6.34 L160 0" stroke="none" stroke-width="0" fill="#1e1e1e" fill-rule="evenodd"></path><path d="M160 0 C154.59 2.52, 149.17 5.05, 146.41 6.34 M160 0 C156.61 1.58, 153.21 3.16, 146.41 6.34 M146.41 6.34 C146.41 2, 146.41 -2.35, 146.41 -6.34 M146.41 6.34 C146.41 2.07, 146.41 -2.2, 146.41 -6.34 M146.41 -6.34 C149.27 -5, 152.13 -3.67, 160 0 M146.41 -6.34 C150.86 -4.26, 155.32 -2.18, 160 0 M160 0 C160 0, 160 0, 160 0 M160 0 C160 0, 160 0, 160 0" stroke="#1e1e1e" stroke-width="1" fill="none"></path></g></g><mask></mask><g transform="translate(168.78303015157655 299.40636489109187) rotate(0 46.119972229003906 10)"><text x="0" y="14.016" font-family="Virgil, Segoe UI Emoji" font-size="16px" fill="#1e1e1e" text-anchor="start" style="white-space: pre;" direction="ltr" dominant-baseline="alphabetic">W_ALETTA</text></g><g transform="translate(377.78303015157655 300.40636489109187) rotate(0 44.18395233154297 10)"><text x="0" y="14.016" font-family="Virgil, Segoe UI Emoji" font-size="16px" fill="#1e1e1e" text-anchor="start" style="white-space: pre;" direction="ltr" dominant-baseline="alphabetic">W_PAGINA</text></g><g transform="translate(760.7830301515766 301.40636489109187) rotate(0 44.18395233154297 10)"><text x="0" y="14.016" font-family="Virgil, Segoe UI Emoji" font-size="16px" fill="#1e1e1e" text-anchor="start" style="white-space: pre;" direction="ltr" dominant-baseline="alphabetic">W_PAGINA</text></g><g transform="translate(1070.7830301515764 301.40636489109187) rotate(0 46.119972229003906 10)"><text x="0" y="14.016" font-family="Virgil, Segoe UI Emoji" font-size="16px" fill="#1e1e1e" text-anchor="start" style="white-space: pre;" direction="ltr" dominant-baseline="alphabetic">W_ALETTA</text></g><g transform="translate(624.7830301515766 344.40636489109187) rotate(0 40.71997833251953 10)"><text x="0" y="14.016" font-family="Virgil, Segoe UI Emoji" font-size="16px" fill="#1e1e1e" text-anchor="start" style="white-space: pre;" direction="ltr" dominant-baseline="alphabetic">W_DORSO</text></g><g stroke-linecap="round"><g stroke-opacity="0.5" fill-opacity="0.5" transform="translate(979.5112703977503 156.84409917116312) rotate(0 0 233.5)"><path d="M0 0 C0 137.3, 0 274.59, 0 467 M0 0 C0 119.25, 0 238.5, 0 467" stroke="#1e1e1e" stroke-width="1" fill="none"></path></g><g stroke-opacity="0.5" fill-opacity="0.5" transform="translate(979.5112703977503 156.84409917116312) rotate(0 0 233.5)"><path d="M0 0 L6.34 13.59 L-6.34 13.59 L0 0" stroke="none" stroke-width="0" fill="#1e1e1e" fill-rule="evenodd"></path><path d="M0 0 C1.86 4, 3.73 7.99, 6.34 13.59 M0 0 C1.62 3.47, 3.24 6.94, 6.34 13.59 M6.34 13.59 C1.95 13.59, -2.43 13.59, -6.34 13.59 M6.34 13.59 C2.91 13.59, -0.51 13.59, -6.34 13.59 M-6.34 13.59 C-4 8.59, -1.67 3.58, 0 0 M-6.34 13.59 C-4.06 8.71, -1.78 3.82, 0 0 M0 0 C0 0, 0 0, 0 0 M0 0 C0 0, 0 0, 0 0" stroke="#1e1e1e" stroke-width="1" fill="none"></path></g><g stroke-opacity="0.5" fill-opacity="0.5" transform="translate(979.5112703977503 156.84409917116312) rotate(0 0 233.5)"><path d="M0 467 L-6.34 453.41 L6.34 453.41 L0 467" stroke="none" stroke-width="0" fill="#1e1e1e" fill-rule="evenodd"></path><path d="M0 467 C-1.86 463, -3.73 459.01, -6.34 453.41 M0 467 C-1.62 463.53, -3.24 460.06, -6.34 453.41 M-6.34 453.41 C-1.95 453.41, 2.43 453.41, 6.34 453.41 M-6.34 453.41 C-2.91 453.41, 0.51 453.41, 6.34 453.41 M6.34 453.41 C4 458.41, 1.67 463.42, 0 467 M6.34 453.41 C4.06 458.29, 1.78 463.18, 0 467 M0 467 C0 467, 0 467, 0 467 M0 467 C0 467, 0 467, 0 467" stroke="#1e1e1e" stroke-width="1" fill="none"></path></g></g><mask></mask><g transform="translate(922.3702866686918 377.008836582843) rotate(270 42.62395477294922 10)"><text x="0" y="14.016" font-family="Virgil, Segoe UI Emoji" font-size="16px" fill="#1e1e1e" text-anchor="start" style="white-space: pre;" direction="ltr" dominant-baseline="alphabetic">H_PAGINA</text></g><g stroke-linecap="round" transform="translate(79.78303015157655 100.90636489109187) rotate(0 584.5 288.5)"><path d="M0 0 C283.24 0, 566.47 0, 1169 0 M0 0 C435.45 0, 870.9 0, 1169 0 M1169 0 C1169 214.81, 1169 429.62, 1169 577 M1169 0 C1169 225.94, 1169 451.88, 1169 577 M1169 577 C914.02 577, 659.05 577, 0 577 M1169 577 C774.7 577, 380.4 577, 0 577 M0 577 C0 449.62, 0 322.25, 0 0 M0 577 C0 453.25, 0 329.5, 0 0" stroke="#e03131" stroke-width="1" fill="none"></path></g><g stroke-linecap="round"><g transform="translate(112.78303015157655 153.90636489109187) rotate(0 -17 0)"><path d="M0 0 C-11.22 0, -22.45 0, -34 0 M0 0 C-11.77 0, -23.53 0, -34 0" stroke="#e03131" stroke-width="1" fill="none"></path></g></g><mask></mask><g stroke-linecap="round"><g transform="translate(1250.7830301515764 153.90636489109187) rotate(0 -17 0)"><path d="M0 0 C-11.89 0, -23.79 0, -34 0 M0 0 C-12.75 0, -25.51 0, -34 0" stroke="#e03131" stroke-width="1" fill="none"></path></g></g><mask></mask><g stroke-linecap="round"><g transform="translate(112.78303015157655 623.9063648910919) rotate(0 -17 0)"><path d="M0 0 C-7.93 0, -15.85 0, -34 0 M0 0 C-7.81 0, -15.61 0, -34 0" stroke="#e03131" stroke-width="1" fill="none"></path></g></g><mask></mask><g stroke-linecap="round"><g transform="translate(1250.7830301515764 623.9063648910919) rotate(0 -17 0)"><path d="M0 0 C-9.56 0, -19.13 0, -34 0 M0 0 C-8.53 0, -17.05 0, -34 0" stroke="#e03131" stroke-width="1" fill="none"></path></g></g><mask></mask><g stroke-linecap="round"><g transform="translate(133.7830301515766 134.90636489109187) rotate(0 0 -17)"><path d="M0 0 C0 -11.76, 0 -23.52, 0 -34 M0 0 C0 -9.19, 0 -18.37, 0 -34" stroke="#e03131" stroke-width="1" fill="none"></path></g></g><mask></mask><g stroke-linecap="round"><g transform="translate(133.7830301515766 678.9063648910919) rotate(0 0 -17)"><path d="M0 0 C0 -7.16, 0 -14.33, 0 -34 M0 0 C0 -11.15, 0 -22.3, 0 -34" stroke="#e03131" stroke-width="1" fill="none"></path></g></g><mask></mask><g stroke-linecap="round"><g transform="translate(292.82672675271226 134.90636489109187) rotate(0 0 -17)"><path d="M0 0 C0 -12.66, 0 -25.32, 0 -34 M0 0 C0 -13.31, 0 -26.63, 0 -34" stroke="#e03131" stroke-width="1" fill="none"></path></g></g><mask></mask><g stroke-linecap="round"><g transform="translate(292.82672675271226 678.9063648910919) rotate(0 0 -17)"><path d="M0 0 C0 -7.54, 0 -15.07, 0 -34 M0 0 C0 -9.36, 0 -18.72, 0 -34" stroke="#e03131" stroke-width="1" fill="none"></path></g></g><mask></mask><g stroke-linecap="round"><g transform="translate(641.5631656541605 134.90636489109187) rotate(0 0 -17)"><path d="M0 0 C0 -7.66, 0 -15.32, 0 -34 M0 0 C0 -12.17, 0 -24.34, 0 -34" stroke="#e03131" stroke-width="1" fill="none"></path></g></g><mask></mask><g stroke-linecap="round"><g transform="translate(641.5631656541605 678.9063648910919) rotate(0 0 -17)"><path d="M0 0 C0 -10.43, 0 -20.86, 0 -34 M0 0 C0 -10.28, 0 -20.56, 0 -34" stroke="#e03131" stroke-width="1" fill="none"></path></g></g><mask></mask><g stroke-linecap="round"><g transform="translate(688.7792630826225 134.90636489109187) rotate(0 0 -17)"><path d="M0 0 C0 -7.74, 0 -15.47, 0 -34 M0 0 C0 -12.72, 0 -25.43, 0 -34" stroke="#e03131" stroke-width="1" fill="none"></path></g></g><mask></mask><g stroke-linecap="round"><g transform="translate(688.7792630826225 678.9063648910919) rotate(0 0 -17)"><path d="M0 0 C0 -12.53, 0 -25.05, 0 -34 M0 0 C0 -12.22, 0 -24.45, 0 -34" stroke="#e03131" stroke-width="1" fill="none"></path></g></g><mask></mask><g stroke-linecap="round"><g transform="translate(1040.0007597434633 134.90636489109187) rotate(0 0 -17)"><path d="M0 0 C0 -10.57, 0 -21.14, 0 -34 M0 0 C0 -9.7, 0 -19.41, 0 -34" stroke="#e03131" stroke-width="1" fill="none"></path></g></g><mask></mask><g stroke-linecap="round"><g transform="translate(1040.0007597434633 678.9063648910919) rotate(0 0 -17)"><path d="M0 0 C0 -7.42, 0 -14.83, 0 -34 M0 0 C0 -11.47, 0 -22.94, 0 -34" stroke="#e03131" stroke-width="1" fill="none"></path></g></g><mask></mask><g stroke-linecap="round"><g transform="translate(1199.0444563445985 134.90636489109187) rotate(0 0 -17)"><path d="M0 0 C0 -7.36, 0 -14.72, 0 -34 M0 0 C0 -12.86, 0 -25.71, 0 -34" stroke="#e03131" stroke-width="1" fill="none"></path></g></g><mask></mask><g stroke-linecap="round"><g transform="translate(1199.0444563445985 678.9063648910919) rotate(0 0 -17)"><path d="M0 0 C0 -12.81, 0 -25.62, 0 -34 M0 0 C0 -9.09, 0 -18.17, 0 -34" stroke="#e03131" stroke-width="1" fill="none"></path></g></g><mask></mask><g transform="translate(172.08540332946188 107.10857175653908) rotate(0 32.95198059082031 10)"><text x="0" y="14.016" font-family="Virgil, Segoe UI Emoji" font-size="16px" fill="#1e1e1e" text-anchor="start" style="white-space: pre;" direction="ltr" dominant-baseline="alphabetic">TAGLIO</text></g><g transform="translate(63.30822684118681 376.2383101370128) rotate(270 32.95198059082031 10)"><text x="0" y="14.016" font-family="Virgil, Segoe UI Emoji" font-size="16px" fill="#1e1e1e" text-anchor="start" style="white-space: pre;" direction="ltr" dominant-baseline="alphabetic">TAGLIO</text></g><g transform="translate(1200.7799085677188 376.2383101370128) rotate(270 32.95198059082031 10)"><text x="0" y="14.016" font-family="Virgil, Segoe UI Emoji" font-size="16px" fill="#1e1e1e" text-anchor="start" style="white-space: pre;" direction="ltr" dominant-baseline="alphabetic">TAGLIO</text></g><g transform="translate(172.085403329462 650.9944541979148) rotate(0 32.95198059082031 10)"><text x="0" y="14.016" font-family="Virgil, Segoe UI Emoji" font-size="16px" fill="#1e1e1e" text-anchor="start" style="white-space: pre;" direction="ltr" dominant-baseline="alphabetic">TAGLIO</text></g><g transform="translate(149.57978060774997 134.30286587860783) rotate(0 56.10395050048828 10.000000000000014)"><text x="0" y="14.016" font-family="Virgil, Segoe UI Emoji" font-size="16px" fill="#1e1e1e" text-anchor="start" style="white-space: pre;" direction="ltr" dominant-baseline="alphabetic">ABBONDANZA</text></g><g transform="translate(149.57978060774997 625.6756286359887) rotate(0 56.10395050048828 10)"><text x="0" y="14.016" font-family="Virgil, Segoe UI Emoji" font-size="16px" fill="#1e1e1e" text-anchor="start" style="white-space: pre;" direction="ltr" dominant-baseline="alphabetic">ABBONDANZA</text></g><g transform="translate(68.93463252161496 379.98924725729825) rotate(270 56.10395050048828 10)"><text x="0" y="14.016" font-family="Virgil, Segoe UI Emoji" font-size="16px" fill="#1e1e1e" text-anchor="start" style="white-space: pre;" direction="ltr" dominant-baseline="alphabetic">ABBONDANZA</text></g><g transform="translate(1153.893194564152 379.98924725729825) rotate(270 56.10395050048828 10)"><text x="0" y="14.016" font-family="Virgil, Segoe UI Emoji" font-size="16px" fill="#1e1e1e" text-anchor="start" style="white-space: pre;" direction="ltr" dominant-baseline="alphabetic">ABBONDANZA</text></g><g transform="translate(180.7519019808376 155.08428012733287) rotate(0 38.015968322753906 10)"><text x="0" y="14.016" font-family="Virgil, Segoe UI Emoji" font-size="16px" fill="#1e1e1e" text-anchor="start" style="white-space: pre;" direction="ltr" dominant-baseline="alphabetic">MARGINE</text></g><g transform="translate(180.7519019808376 605.348255516376) rotate(0 22.671981811523438 10)"><text x="0" y="14.016" font-family="Virgil, Segoe UI Emoji" font-size="16px" fill="#1e1e1e" text-anchor="start" style="white-space: pre;" direction="ltr" dominant-baseline="alphabetic">Bordo</text></g><g transform="translate(104.79545724415908 365.7381735709876) rotate(270 38.015968322753906 10)"><text x="0" y="14.016" font-family="Virgil, Segoe UI Emoji" font-size="16px" fill="#1e1e1e" text-anchor="start" style="white-space: pre;" direction="ltr" dominant-baseline="alphabetic">MARGINE</text></g><g stroke-linecap="round"><g transform="translate(78.93033920659195 100.67527151002685) rotate(0 0 -36.537816366739975)"><path d="M0 0 C0 -27.17, 0 -54.34, 0 -73.08" stroke="#1971c2" stroke-width="1.5" fill="none" stroke-dasharray="1.5 7"></path></g></g><mask></mask><g stroke-linecap="round"><g transform="translate(113.08362968547226 133.24759454451797) rotate(0 -0.32820749110010183 -51.42126202816347)"><path d="M0 0 C-0.14 -22.24, -0.28 -44.47, -0.66 -102.84" stroke="#1971c2" stroke-width="1.5" fill="none" stroke-dasharray="1.5 7"></path></g></g><mask></mask><g transform="translate(72.49747652595187 10) rotate(0 5.3359375 9.200000000000003)"><text x="0" y="14.720312499999999" font-family="Helvetica, Segoe UI Emoji" font-size="16px" fill="#1971c2" text-anchor="start" style="white-space: pre;" direction="ltr" dominant-baseline="alphabetic">A</text></g><g transform="translate(106.96882286957276 10) rotate(0 5.3359375 9.200000000000003)"><text x="0" y="14.720312499999999" font-family="Helvetica, Segoe UI Emoji" font-size="16px" fill="#1971c2" text-anchor="start" style="white-space: pre;" direction="ltr" dominant-baseline="alphabetic">B</text></g><g stroke-linecap="round"><g transform="translate(79.5906925920412 100.88594880359807) rotate(0 -26.84750752171172 0)"><path d="M0 0 C-20.25 0, -40.49 0, -53.7 0" stroke="#1971c2" stroke-width="1.5" fill="none" stroke-dasharray="1.5 7"></path></g></g><mask></mask><g transform="translate(10 90.98264563926159) rotate(0 5.3359375 9.200000000000003)"><text x="0" y="14.720312499999999" font-family="Helvetica, Segoe UI Emoji" font-size="16px" fill="#1971c2" text-anchor="start" style="white-space: pre;" direction="ltr" dominant-baseline="alphabetic">A</text></g><g stroke-linecap="round"><g transform="translate(113.2298088687549 134.67349738013797) rotate(0 -43.66706566006857 0)"><path d="M0 0 C-18 0, -36 0, -87.33 0" stroke="#1971c2" stroke-width="1.5" fill="none" stroke-dasharray="1.5 7"></path></g></g><mask></mask><g transform="translate(10 124.7701942158015) rotate(0 5.3359375 9.199999999999989)"><text x="0" y="14.720312499999999" font-family="Helvetica, Segoe UI Emoji" font-size="16px" fill="#1971c2" text-anchor="start" style="white-space: pre;" direction="ltr" dominant-baseline="alphabetic">B</text></g><g stroke-linecap="round"><g transform="translate(79.5906925920412 153.97120020098566) rotate(0 -26.84750752171172 0)"><path d="M0 0 C-19.83 0, -39.65 0, -53.7 0" stroke="#1971c2" stroke-width="1.5" fill="none" stroke-dasharray="1.5 7"></path></g></g><mask></mask><g transform="translate(10 144.06789703664919) rotate(0 5.77734375 9.199999999999989)"><text x="0" y="14.720312499999999" font-family="Helvetica, Segoe UI Emoji" font-size="16px" fill="#1971c2" text-anchor="start" style="white-space: pre;" direction="ltr" dominant-baseline="alphabetic">C</text></g><g stroke-linecap="round"><g transform="translate(79.5906925920412 624.2041729261346) rotate(0 -26.84750752171172 0)"><path d="M0 0 C-20.97 0, -41.94 0, -53.7 0" stroke="#1971c2" stroke-width="1.5" fill="none" stroke-dasharray="1.5 7"></path></g></g><mask></mask><g transform="translate(10 614.3008697617981) rotate(0 5.77734375 9.199999999999989)"><text x="0" y="14.720312499999999" font-family="Helvetica, Segoe UI Emoji" font-size="16px" fill="#1971c2" text-anchor="start" style="white-space: pre;" direction="ltr" dominant-baseline="alphabetic">H</text></g><g stroke-linecap="round"><g transform="translate(112.69319305337399 644.6702973532019) rotate(0 -43.39875775237812 0)"><path d="M0 0 C-21.57 0, -43.13 0, -86.8 0" stroke="#1971c2" stroke-width="1.5" fill="none" stroke-dasharray="1.5 7"></path></g></g><mask></mask><g transform="translate(10 634.7669941888655) rotate(0 2.22265625 9.199999999999989)"><text x="0" y="14.720312499999999" font-family="Helvetica, Segoe UI Emoji" font-size="16px" fill="#1971c2" text-anchor="start" style="white-space: pre;" direction="ltr" dominant-baseline="alphabetic">I</text></g><g stroke-linecap="round"><g transform="translate(79.5906925920412 677.9779116168609) rotate(0 -26.84750752171172 0)"><path d="M0 0 C-13.46 0, -26.92 0, -53.7 0" stroke="#1971c2" stroke-width="1.5" fill="none" stroke-dasharray="1.5 7"></path></g></g><mask></mask><g transform="translate(10 668.0746084525244) rotate(0 4 9.199999999999989)"><text x="0" y="14.720312499999999" font-family="Helvetica, Segoe UI Emoji" font-size="16px" fill="#1971c2" text-anchor="start" style="white-space: pre;" direction="ltr" dominant-baseline="alphabetic">J</text></g><g stroke-linecap="round"><g transform="translate(150.84030444174158 606.0463470724799) rotate(0 -62.47231344656191 0)"><path d="M0 0 C-35.57 0, -71.13 0, -124.94 0" stroke="#1971c2" stroke-width="1.5" fill="none" stroke-dasharray="1.5 7"></path></g></g><mask></mask><g transform="translate(10 596.1430439081435) rotate(0 6.22265625 9.199999999999989)"><text x="0" y="14.720312499999999" font-family="Helvetica, Segoe UI Emoji" font-size="16px" fill="#1971c2" text-anchor="start" style="white-space: pre;" direction="ltr" dominant-baseline="alphabetic">G</text></g><g stroke-linecap="round"><g transform="translate(150.84030444174158 171.99584928436093) rotate(0 -62.47231344656191 0)"><path d="M0 0 C-45.83 0, -91.66 0, -124.94 0" stroke="#1971c2" stroke-width="1.5" fill="none" stroke-dasharray="1.5 7"></path></g></g><mask></mask><g transform="translate(10 162.0925461200245) rotate(0 5.77734375 9.199999999999989)"><text x="0" y="14.720312499999999" font-family="Helvetica, Segoe UI Emoji" font-size="16px" fill="#1971c2" text-anchor="start" style="white-space: pre;" direction="ltr" dominant-baseline="alphabetic">D</text></g><g stroke-linecap="round"><g transform="translate(151.78736817959185 169.97375151028888) rotate(0 -0.32820749110010183 -69.78434051104892)"><path d="M0 0 C-0.24 -51.37, -0.48 -102.74, -0.66 -139.57" stroke="#1971c2" stroke-width="1.5" fill="none" stroke-dasharray="1.5 7"></path></g></g><mask></mask><g transform="translate(145.67256136369235 10) rotate(0 5.77734375 9.200000000000003)"><text x="0" y="14.720312499999999" font-family="Helvetica, Segoe UI Emoji" font-size="16px" fill="#1971c2" text-anchor="start" style="white-space: pre;" direction="ltr" dominant-baseline="alphabetic">D</text></g><g stroke-linecap="round"><g transform="translate(276.2926949469312 169.97375151028888) rotate(0 -0.32820749110010183 -69.78434051104892)"><path d="M0 0 C-0.18 -37.52, -0.35 -75.04, -0.66 -139.57" stroke="#1971c2" stroke-width="1.5" fill="none" stroke-dasharray="1.5 7"></path></g></g><mask></mask><g transform="translate(270.17788813103164 10) rotate(0 5.3359375 9.200000000000003)"><text x="0" y="14.720312499999999" font-family="Helvetica, Segoe UI Emoji" font-size="16px" fill="#1971c2" text-anchor="start" style="white-space: pre;" direction="ltr" dominant-baseline="alphabetic">E</text></g><g stroke-linecap="round"><g transform="translate(133.79194911087797 100.67527151002685) rotate(0 0 -36.537816366739975)"><path d="M0 0 C0 -26.21, 0 -52.43, 0 -73.08" stroke="#1971c2" stroke-width="1.5" fill="none" stroke-dasharray="1.5 7"></path></g></g><mask></mask><g transform="translate(127.35908643023788 10) rotate(0 5.77734375 9.200000000000003)"><text x="0" y="14.720312499999999" font-family="Helvetica, Segoe UI Emoji" font-size="16px" fill="#1971c2" text-anchor="start" style="white-space: pre;" direction="ltr" dominant-baseline="alphabetic">C</text></g><g stroke-linecap="round"><g transform="translate(292.8041012483915 100.67527151002685) rotate(0 0 -36.537816366739975)"><path d="M0 0 C0 -17.31, 0 -34.62, 0 -73.08" stroke="#1971c2" stroke-width="1.5" fill="none" stroke-dasharray="1.5 7"></path></g></g><mask></mask><g transform="translate(287.9583762425741 10) rotate(0 4.88671875 9.200000000000003)"><text x="0" y="14.720312499999999" font-family="Helvetica, Segoe UI Emoji" font-size="16px" fill="#1971c2" text-anchor="start" style="white-space: pre;" direction="ltr" dominant-baseline="alphabetic">F</text></g><g stroke-linecap="round"><g transform="translate(309.7335697798334 169.93143781801416) rotate(0 0 -71.16589952073363)"><path d="M0 0 C0 -30.13, 0 -60.26, 0 -142.33" stroke="#1971c2" stroke-width="1.5" fill="none" stroke-dasharray="1.5 7"></path></g></g><mask></mask><g transform="translate(304.887844774016 10) rotate(0 6.22265625 9.200000000000003)"><text x="0" y="14.720312499999999" font-family="Helvetica, Segoe UI Emoji" font-size="16px" fill="#1971c2" text-anchor="start" style="white-space: pre;" direction="ltr" dominant-baseline="alphabetic">G</text></g><g stroke-linecap="round"><g transform="translate(621.3656659069532 169.93143781801416) rotate(0 0 -71.16589952073363)"><path d="M0 0 C0 -42.84, 0 -85.69, 0 -142.33" stroke="#1971c2" stroke-width="1.5" fill="none" stroke-dasharray="1.5 7"></path></g></g><mask></mask><g transform="translate(616.5199409011358 10) rotate(0 2.22265625 9.200000000000003)"><text x="0" y="14.720312499999999" font-family="Helvetica, Segoe UI Emoji" font-size="16px" fill="#1971c2" text-anchor="start" style="white-space: pre;" direction="ltr" dominant-baseline="alphabetic">I</text></g><g stroke-linecap="round"><g transform="translate(641.335076866668 100.67527151002685) rotate(0 0 -36.537816366739975)"><path d="M0 0 C0 -16.96, 0 -33.91, 0 -73.08" stroke="#1971c2" stroke-width="1.5" fill="none" stroke-dasharray="1.5 7"></path></g></g><mask></mask><g transform="translate(639.4893518608507 10) rotate(0 4 9.200000000000003)"><text x="0" y="14.720312499999999" font-family="Helvetica, Segoe UI Emoji" font-size="16px" fill="#1971c2" text-anchor="start" style="white-space: pre;" direction="ltr" dominant-baseline="alphabetic">J</text></g><g stroke-linecap="round"><g transform="translate(666.5592153759703 100.67527151002685) rotate(0 0 -36.537816366739975)"><path d="M0 0 C0 -17.64, 0 -35.27, 0 -73.08" stroke="#1971c2" stroke-width="1.5" fill="none" stroke-dasharray="1.5 7"></path></g></g><mask></mask><g transform="translate(661.713490370153 10) rotate(0 5.3359375 9.200000000000003)"><text x="0" y="14.720312499999999" font-family="Helvetica, Segoe UI Emoji" font-size="16px" fill="#1971c2" text-anchor="start" style="white-space: pre;" direction="ltr" dominant-baseline="alphabetic">K</text></g><g stroke-linecap="round"><g transform="translate(688.7998536314842 100.67527151002685) rotate(0 0 -36.537816366739975)"><path d="M0 0 C0 -20.09, 0 -40.17, 0 -73.08" stroke="#1971c2" stroke-width="1.5" fill="none" stroke-dasharray="1.5 7"></path></g></g><mask></mask><g transform="translate(683.9541286256668 10) rotate(0 4.44921875 9.200000000000003)"><text x="0" y="14.720312499999999" font-family="Helvetica, Segoe UI Emoji" font-size="16px" fill="#1971c2" text-anchor="start" style="white-space: pre;" direction="ltr" dominant-baseline="alphabetic">L</text></g><g stroke-linecap="round"><g transform="translate(710.8745310166843 169.93143781801422) rotate(0 0 -71.16589952073366)"><path d="M0 0 C0 -55.22, 0 -110.43, 0 -142.33" stroke="#1971c2" stroke-width="1.5" fill="none" stroke-dasharray="1.5 7"></path></g></g><mask></mask><g transform="translate(706.028806010867 10) rotate(0 6.6640625 9.200000000000003)"><text x="0" y="14.720312499999999" font-family="Helvetica, Segoe UI Emoji" font-size="16px" fill="#1971c2" text-anchor="start" style="white-space: pre;" direction="ltr" dominant-baseline="alphabetic">M</text></g><g stroke-linecap="round"><g transform="translate(1021.7083957446731 169.93143781801422) rotate(0 0 -71.16589952073366)"><path d="M0 0 C0 -45.13, 0 -90.26, 0 -142.33" stroke="#1971c2" stroke-width="1.5" fill="none" stroke-dasharray="1.5 7"></path></g></g><mask></mask><g transform="translate(1016.8626707388559 10) rotate(0 6.22265625 9.200000000000003)"><text x="0" y="14.720312499999999" font-family="Helvetica, Segoe UI Emoji" font-size="16px" fill="#1971c2" text-anchor="start" style="white-space: pre;" direction="ltr" dominant-baseline="alphabetic">O</text></g><g stroke-linecap="round"><g transform="translate(1039.8411664539444 100.67527151002685) rotate(0 0 -36.537816366739975)"><path d="M0 0 C0 -16.14, 0 -32.28, 0 -73.08" stroke="#1971c2" stroke-width="1.5" fill="none" stroke-dasharray="1.5 7"></path></g></g><mask></mask><g transform="translate(1034.9954414481272 10) rotate(0 5.3359375 9.200000000000003)"><text x="0" y="14.720312499999999" font-family="Helvetica, Segoe UI Emoji" font-size="16px" fill="#1971c2" text-anchor="start" style="white-space: pre;" direction="ltr" dominant-baseline="alphabetic">P</text></g><g stroke-linecap="round"><g transform="translate(1058.5506998335877 169.9314378180141) rotate(0 0 -71.1658995207336)"><path d="M0 0 C0 -56.68, 0 -113.37, 0 -142.33" stroke="#1971c2" stroke-width="1.5" fill="none" stroke-dasharray="1.5 7"></path></g></g><mask></mask><g transform="translate(1053.7049748277705 10) rotate(0 6.22265625 9.200000000000003)"><text x="0" y="14.720312499999999" font-family="Helvetica, Segoe UI Emoji" font-size="16px" fill="#1971c2" text-anchor="start" style="white-space: pre;" direction="ltr" dominant-baseline="alphabetic">Q</text></g><g stroke-linecap="round"><g transform="translate(1184.5381881225608 169.9314378180141) rotate(0 0 -71.1658995207336)"><path d="M0 0 C0 -52.69, 0 -105.39, 0 -142.33" stroke="#1971c2" stroke-width="1.5" fill="none" stroke-dasharray="1.5 7"></path></g></g><mask></mask><g transform="translate(1179.6924631167435 10) rotate(0 5.77734375 9.200000000000003)"><text x="0" y="14.720312499999999" font-family="Helvetica, Segoe UI Emoji" font-size="16px" fill="#1971c2" text-anchor="start" style="white-space: pre;" direction="ltr" dominant-baseline="alphabetic">R</text></g><g stroke-linecap="round"><g transform="translate(1199.0941961614608 100.67527151002685) rotate(0 0 -36.537816366739975)"><path d="M0 0 C0 -24.77, 0 -49.54, 0 -73.08" stroke="#1971c2" stroke-width="1.5" fill="none" stroke-dasharray="1.5 7"></path></g></g><mask></mask><g transform="translate(1194.2484711556435 10) rotate(0 5.3359375 9.200000000000003)"><text x="0" y="14.720312499999999" font-family="Helvetica, Segoe UI Emoji" font-size="16px" fill="#1971c2" text-anchor="start" style="white-space: pre;" direction="ltr" dominant-baseline="alphabetic">S</text></g><g stroke-linecap="round"><g transform="translate(1247.7622202781613 100.67527151002685) rotate(0 0 -36.537816366739975)"><path d="M0 0 C0 -15.79, 0 -31.58, 0 -73.08" stroke="#1971c2" stroke-width="1.5" fill="none" stroke-dasharray="1.5 7"></path></g></g><mask></mask><g transform="translate(1242.916495272344 10) rotate(0 4.88671875 9.200000000000003)"><text x="0" y="14.720312499999999" font-family="Helvetica, Segoe UI Emoji" font-size="16px" fill="#1971c2" text-anchor="start" style="white-space: pre;" direction="ltr" dominant-baseline="alphabetic">T</text></g><g stroke-linecap="round" transform="translate(493.9071628470572 523.3668312970813) rotate(0 63.59183680628905 41.45245658484026)"><path d="M0 0 C28.29 0, 56.58 0, 127.18 0 M0 0 C43.23 0, 86.46 0, 127.18 0 M127.18 0 C127.18 22.37, 127.18 44.74, 127.18 82.9 M127.18 0 C127.18 27.77, 127.18 55.54, 127.18 82.9 M127.18 82.9 C99.72 82.9, 72.26 82.9, 0 82.9 M127.18 82.9 C98.93 82.9, 70.68 82.9, 0 82.9 M0 82.9 C0 63.85, 0 44.79, 0 0 M0 82.9 C0 63.99, 0 45.07, 0 0" stroke="#2f9e44" stroke-width="1" fill="none"></path></g><g stroke-linecap="round"><g transform="translate(494.0921733290959 522.8736912196966) rotate(0 0 -247.63702622157484)"><path d="M0 0 C0 -107.01, 0 -214.01, 0 -495.27" stroke="#1971c2" stroke-width="1.5" fill="none" stroke-dasharray="1.5 7"></path></g></g><mask></mask><g transform="translate(489.2464483232785 10) rotate(0 5.77734375 9.200000000000003)"><text x="0" y="14.720312499999999" font-family="Helvetica, Segoe UI Emoji" font-size="16px" fill="#1971c2" text-anchor="start" style="white-space: pre;" direction="ltr" dominant-baseline="alphabetic">H</text></g><g stroke-linecap="round"><g transform="translate(493.7250034286701 523.2140858545179) rotate(0 -233.91466294002618 0)"><path d="M0 0 C-125.55 0, -251.1 0, -467.83 0" stroke="#1971c2" stroke-width="1.5" fill="none" stroke-dasharray="1.5 7"></path></g></g><mask></mask><g transform="translate(10 513.3107826901814) rotate(0 4.88671875 9.199999999999989)"><text x="0" y="14.720312499999999" font-family="Helvetica, Segoe UI Emoji" font-size="16px" fill="#1971c2" text-anchor="start" style="white-space: pre;" direction="ltr" dominant-baseline="alphabetic">F</text></g><g stroke-linecap="round"><g stroke-opacity="0.4" fill-opacity="0.4" transform="translate(865.8402325011667 136.29471445693122) rotate(0 0 251.67791841915943)"><path d="M0 0 C0 196.36, 0 392.73, 0 503.36" stroke="#1e1e1e" stroke-width="1.5" fill="none" stroke-dasharray="1.5 7"></path></g></g><mask></mask><g stroke-linecap="round"><g transform="translate(866.0675155523419 134.19049360642347) rotate(0 0 -53.29542741493829)"><path d="M0 0 C0 -36.8, 0 -73.6, 0 -106.59" stroke="#1971c2" stroke-width="1.5" fill="none" stroke-dasharray="1.5 7"></path></g></g><mask></mask><g transform="translate(861.2217905465246 10) rotate(0 5.77734375 9.200000000000003)"><text x="0" y="14.720312499999999" font-family="Helvetica, Segoe UI Emoji" font-size="16px" fill="#1971c2" text-anchor="start" style="white-space: pre;" direction="ltr" dominant-baseline="alphabetic">N</text></g><g stroke-linecap="round"><g stroke-opacity="0.3" fill-opacity="0.3" transform="translate(112.88451237542813 497.52973074024277) rotate(0 552.9160704290175 0)"><path d="M0 0 C230.49 0, 460.98 0, 1105.83 0" stroke="#1e1e1e" stroke-width="1.5" fill="none" stroke-dasharray="1.5 7"></path></g></g><mask></mask><g stroke-linecap="round"><g transform="translate(112.69319305337399 497.41926924598005) rotate(0 -43.39875775237812 0)"><path d="M0 0 C-26.33 0, -52.67 0, -86.8 0" stroke="#1971c2" stroke-width="1.5" fill="none" stroke-dasharray="1.5 7"></path></g></g><mask></mask><g transform="translate(10 487.5159660816436) rotate(0 5.3359375 9.199999999999989)"><text x="0" y="14.720312499999999" font-family="Helvetica, Segoe UI Emoji" font-size="16px" fill="#1971c2" text-anchor="start" style="white-space: pre;" direction="ltr" dominant-baseline="alphabetic">E</text></g><g transform="translate(522.8889278132397 549.1427646661177) rotate(0 32.767967224121094 10)"><text x="0" y="14.016" font-family="Virgil, Segoe UI Emoji" font-size="16px" fill="#1e1e1e" text-anchor="start" style="white-space: pre;" direction="ltr" dominant-baseline="alphabetic">W_ISBN</text></g><g stroke-linecap="round"><g stroke-opacity="0.3" fill-opacity="0.3" transform="translate(494.76440163811924 572.2245873172881) rotate(0 62.262878962609534 0)"><path d="M0 0 C49.32 0, 98.63 0, 124.53 0 M0 0 C41.42 0, 82.84 0, 124.53 0" stroke="#1e1e1e" stroke-width="1" fill="none"></path></g><g stroke-opacity="0.3" fill-opacity="0.3" transform="translate(494.76440163811924 572.2245873172881) rotate(0 62.262878962609534 0)"><path d="M0 0 L13.59 -6.34 L13.59 6.34 L0 0" stroke="none" stroke-width="0" fill="#1e1e1e" fill-rule="evenodd"></path><path d="M0 0 C5.38 -2.51, 10.77 -5.02, 13.59 -6.34 M0 0 C4.52 -2.11, 9.04 -4.22, 13.59 -6.34 M13.59 -6.34 C13.59 -2.21, 13.59 1.92, 13.59 6.34 M13.59 -6.34 C13.59 -2.54, 13.59 1.26, 13.59 6.34 M13.59 6.34 C8.85 4.12, 4.1 1.91, 0 0 M13.59 6.34 C8.39 3.91, 3.18 1.48, 0 0 M0 0 C0 0, 0 0, 0 0 M0 0 C0 0, 0 0, 0 0" stroke="#1e1e1e" stroke-width="1" fill="none"></path></g><g stroke-opacity="0.3" fill-opacity="0.3" transform="translate(494.76440163811924 572.2245873172881) rotate(0 62.262878962609534 0)"><path d="M124.53 0 L110.93 6.34 L110.93 -6.34 L124.53 0" stroke="none" stroke-width="0" fill="#1e1e1e" fill-rule="evenodd"></path><path d="M124.53 0 C119.14 2.51, 113.76 5.02, 110.93 6.34 M124.53 0 C120 2.11, 115.48 4.22, 110.93 6.34 M110.93 6.34 C110.93 2.21, 110.93 -1.92, 110.93 -6.34 M110.93 6.34 C110.93 2.54, 110.93 -1.26, 110.93 -6.34 M110.93 -6.34 C115.68 -4.12, 120.43 -1.91, 124.53 0 M110.93 -6.34 C116.14 -3.91, 121.35 -1.48, 124.53 0 M124.53 0 C124.53 0, 124.53 0, 124.53 0 M124.53 0 C124.53 0, 124.53 0, 124.53 0" stroke="#1e1e1e" stroke-width="1" fill="none"></path></g></g><mask></mask><g transform="translate(430.09248933801496 554.7027622247115) rotate(270 31.207969665527344 10)"><text x="0" y="14.016" font-family="Virgil, Segoe UI Emoji" font-size="16px" fill="#1e1e1e" text-anchor="start" style="white-space: pre;" direction="ltr" dominant-baseline="alphabetic">H_ISBN</text></g><g stroke-linecap="round"><g stroke-opacity="0.3" fill-opacity="0.3" transform="translate(479.97328184537207 524.0022183179944) rotate(0 0 40.44402921426166)"><path d="M0 0 C0 23.98, 0 47.95, 0 80.89 M0 0 C0 18.79, 0 37.59, 0 80.89" stroke="#1e1e1e" stroke-width="1" fill="none"></path></g><g stroke-opacity="0.3" fill-opacity="0.3" transform="translate(479.97328184537207 524.0022183179944) rotate(0 0 40.44402921426166)"><path d="M0 0 L6.34 13.59 L-6.34 13.59 L0 0" stroke="none" stroke-width="0" fill="#1e1e1e" fill-rule="evenodd"></path><path d="M0 0 C1.88 4.03, 3.76 8.06, 6.34 13.59 M0 0 C1.47 3.16, 2.95 6.32, 6.34 13.59 M6.34 13.59 C1.61 13.59, -3.11 13.59, -6.34 13.59 M6.34 13.59 C2.93 13.59, -0.49 13.59, -6.34 13.59 M-6.34 13.59 C-4.69 10.07, -3.05 6.54, 0 0 M-6.34 13.59 C-4.35 9.33, -2.36 5.07, 0 0 M0 0 C0 0, 0 0, 0 0 M0 0 C0 0, 0 0, 0 0" stroke="#1e1e1e" stroke-width="1" fill="none"></path></g><g stroke-opacity="0.3" fill-opacity="0.3" transform="translate(479.97328184537207 524.0022183179944) rotate(0 0 40.44402921426166)"><path d="M0 80.89 L-6.34 67.29 L6.34 67.29 L0 80.89" stroke="none" stroke-width="0" fill="#1e1e1e" fill-rule="evenodd"></path><path d="M0 80.89 C-1.88 76.86, -3.76 72.83, -6.34 67.29 M0 80.89 C-1.47 77.73, -2.95 74.57, -6.34 67.29 M-6.34 67.29 C-1.61 67.29, 3.11 67.29, 6.34 67.29 M-6.34 67.29 C-2.93 67.29, 0.49 67.29, 6.34 67.29 M6.34 67.29 C4.69 70.82, 3.05 74.35, 0 80.89 M6.34 67.29 C4.35 71.56, 2.36 75.82, 0 80.89 M0 80.89 C0 80.89, 0 80.89, 0 80.89 M0 80.89 C0 80.89, 0 80.89, 0 80.89" stroke="#1e1e1e" stroke-width="1" fill="none"></path></g></g><mask></mask></svg>